# xmcd
#
# Track frame offsets: 
#        150
#        20863
#        38024
#        62396
#        73857
#        92171
#        106494
#        135661
#        150378
#        161816
#        181679
#        191110
#        210655
#
# Disc length: 3138 seconds
#
# Revision: 0
# Processed by: cddbd v1.5.2PL0 Copyright (c) Steve Scherf et al.
# Submitted via: ExactAudioCopyFreeDBPlugin 1.0
#
DISCID=b10c400d
DTITLE=Klaus Brandl and Gottfried Rimmele - Trophies of Failure
DYEAR=2013
DGENRE=Blues
TTITLE0=The Great Big Nothing
TTITLE1=Ari's Song
TTITLE2=Greetings from Berlin
TTITLE3=Six to Four
TTITLE4=Good Man Gone
TTITLE5=Butcher's Dance
TTITLE6=Crossed Her off the List
TTITLE7=Indian Spring
TTITLE8=Wild Sea Shit
TTITLE9=Red Bird Blues
TTITLE10=Burglar
TTITLE11=Waltzing the Blues
TTITLE12=Helsinki
EXTD=
EXTT0=
EXTT1=
EXTT2=
EXTT3=
EXTT4=
EXTT5=
EXTT6=
EXTT7=
EXTT8=
EXTT9=
EXTT10=
EXTT11=
EXTT12=
PLAYORDER=
